{
  "accessors": [
    {
      "bufferView": 2,
      "componentType": 5126,
      "count": 987,
      "max": [
        1.0684750080108643,
        1.084159016609192,
        4.9200639724731445
      ],
      "min": [
        -1.0684740543365479,
        -1.0835870504379272,
        0.8744930028915405
      ],
      "type": "VEC3"
    },
    {
      "bufferView": 2,
      "byteOffset": 11844,
      "componentType": 5126,
      "count": 987,
      "max": [
        0.9995966553688049,
        0.9995852112770081,
        0.48230260610580444
      ],
      "min": [
        -0.9995966553688049,
        -0.9995852112770081,
        -0.997628927230835
      ],
      "type": "VEC3"
    },
    {
      "bufferView": 1,
      "componentType": 5126,
      "count": 987,
      "max": [
        0.9598950147628784,
        1.6356899738311768
      ],
      "min": [
        -0.6330580115318298,
        -0.0972990021109581
      ],
      "type": "VEC2"
    },
    {
      "bufferView": 0,
      "componentType": 5125,
      "count": 4716,
      "type": "SCALAR"
    },
    {
      "bufferView": 2,
      "byteOffset": 23688,
      "componentType": 5126,
      "count": 853,
      "max": [
        1.0095670223236084,
        1.004336953163147,
        1.0899529457092285
      ],
      "min": [
        -1.0229300260543823,
        -1.0574510097503662,
        0.8056769967079163
      ],
      "type": "VEC3"
    },
    {
      "bufferView": 2,
      "byteOffset": 33924,
      "componentType": 5126,
      "count": 853,
      "max": [
        0.9723310470581055,
        0.9860594868659973,
        -0.11420656740665436
      ],
      "min": [
        -0.9723310470581055,
        -0.9934570789337158,
        -0.9681946039199829
      ],
      "type": "VEC3"
    },
    {
      "bufferView": 1,
      "byteOffset": 7896,
      "componentType": 5126,
      "count": 853,
      "max": [
        1.0,
        0.5
      ],
      "min": [
        0.0,
        0.009999999776482582
      ],
      "type": "VEC2"
    },
    {
      "bufferView": 0,
      "byteOffset": 18864,
      "componentType": 5125,
      "count": 4494,
      "type": "SCALAR"
    },
    {
      "bufferView": 2,
      "byteOffset": 44160,
      "componentType": 5126,
      "count": 1140,
      "max": [
        0.8243160247802734,
        0.8380029797554016,
        4.994339942932129
      ],
      "min": [
        -0.8281400203704834,
        -0.838267982006073,
        4.909729957580566
      ],
      "type": "VEC3"
    },
    {
      "bufferView": 2,
      "byteOffset": 57840,
      "componentType": 5126,
      "count": 1140,
      "max": [
        0.8896165490150452,
        0.8869251608848572,
        0.9733805060386658
      ],
      "min": [
        -0.8896165490150452,
        -0.8869251608848572,
        0.45670849084854126
      ],
      "type": "VEC3"
    },
    {
      "bufferView": 1,
      "byteOffset": 14720,
      "componentType": 5126,
      "count": 1140,
      "max": [
        0.49000000953674316,
        0.49000000953674316
      ],
      "min": [
        0.009999999776482582,
        0.009999999776482582
      ],
      "type": "VEC2"
    },
    {
      "bufferView": 0,
      "byteOffset": 36840,
      "componentType": 5125,
      "count": 6654,
      "type": "SCALAR"
    },
    {
      "bufferView": 2,
      "byteOffset": 71520,
      "componentType": 5126,
      "count": 425,
      "max": [
        0.7519329786300659,
        0.9442020058631897,
        2.0545549392700195
      ],
      "min": [
        -0.9757869839668274,
        -0.808417022228241,
        1.9603010416030884
      ],
      "type": "VEC3"
    },
    {
      "bufferView": 2,
      "byteOffset": 76620,
      "componentType": 5126,
      "count": 425,
      "max": [
        0.9978724122047424,
        0.9978196024894714,
        0.6014230847358704
      ],
      "min": [
        -0.9978724122047424,
        -0.9978196024894714,
        -0.8663238286972046
      ],
      "type": "VEC3"
    },
    {
      "bufferView": 1,
      "byteOffset": 23840,
      "componentType": 5126,
      "count": 425,
      "max": [
        1.0,
        1.0
      ],
      "min": [
        0.0,
        1.0
      ],
      "type": "VEC2"
    },
    {
      "bufferView": 0,
      "byteOffset": 63456,
      "componentType": 5125,
      "count": 2157,
      "type": "SCALAR"
    }
  ],
  "asset": {
    "extras": {
      "author": "BloodDoan (https://sketchfab.com/BloodDoan)",
      "license": "CC-BY-4.0 (http://creativecommons.org/licenses/by/4.0/)",
      "source": "https://sketchfab.com/3d-models/low-metal-coke-can-coca-cola-5e1c5212624041a8901dfe3503107bde",
      "title": "low  metal coke can  Coca Cola"
    },
    "generator": "Sketchfab-12.66.0",
    "version": "2.0"
  },
  "bufferViews": [
    {
      "buffer": 0,
      "byteLength": 72084,
      "name": "floatBufferViews",
      "target": 34963
    },
    {
      "buffer": 0,
      "byteLength": 27240,
      "byteOffset": 72084,
      "byteStride": 8,
      "name": "floatBufferViews",
      "target": 34962
    },
    {
      "buffer": 0,
      "byteLength": 81720,
      "byteOffset": 99324,
      "byteStride": 12,
      "name": "floatBufferViews",
      "target": 34962
    }
  ],
  "buffers": [
    {
      "byteLength": 181044,
      "uri": "scene.bin"
    }
  ],
  "extensionsRequired": [
    "KHR_materials_pbrSpecularGlossiness"
  ],
  "extensionsUsed": [
    "KHR_materials_pbrSpecularGlossiness"
  ],
  "materials": [
    {
      "doubleSided": true,
      "extensions": {
        "KHR_materials_pbrSpecularGlossiness": {
          "diffuseFactor": [
            1.0,
            0.0,
            0.0,
            1.0
          ],
          "glossinessFactor": 0.7854838905812037,
          "specularFactor": [
            0.1050729924788258,
            0.1050729924788258,
            0.1050729924788258
          ]
        }
      },
      "name": "Material.006"
    },
    {
      "doubleSided": true,
      "extensions": {
        "KHR_materials_pbrSpecularGlossiness": {
          "diffuseFactor": [
            1.0,
            1.0,
            1.0,
            1.0
          ],
          "glossinessFactor": 0.4,
          "specularFactor": [
            0.0,
            0.0,
            0.0
          ]
        }
      },
      "name": "Material.007"
    },
    {
      "doubleSided": true,
      "extensions": {
        "KHR_materials_pbrSpecularGlossiness": {
          "diffuseFactor": [
            1.0,
            1.0,
            1.0,
            1.0
          ],
          "glossinessFactor": 0.4,
          "specularFactor": [
            0.0,
            0.0,
            0.0
          ]
        }
      },
      "name": "Material.008"
    },
    {
      "doubleSided": true,
      "extensions": {
        "KHR_materials_pbrSpecularGlossiness": {
          "diffuseFactor": [
            1.0,
            1.0,
            1.0,
            1.0
          ],
          "glossinessFactor": 0.4,
          "specularFactor": [
            0.0,
            0.0,
            0.0
          ]
        }
      },
      "name": "None"
    }
  ],
  "meshes": [
    {
      "name": "Object_0",
      "primitives": [
        {
          "attributes": {
            "NORMAL": 1,
            "POSITION": 0,
            "TEXCOORD_0": 2
          },
          "indices": 3,
          "material": 0,
          "mode": 4
        }
      ]
    },
    {
      "name": "Object_1",
      "primitives": [
        {
          "attributes": {
            "NORMAL": 5,
            "POSITION": 4,
            "TEXCOORD_0": 6
          },
          "indices": 7,
          "material": 1,
          "mode": 4
        }
      ]
    },
    {
      "name": "Object_2",
      "primitives": [
        {
          "attributes": {
            "NORMAL": 9,
            "POSITION": 8,
            "TEXCOORD_0": 10
          },
          "indices": 11,
          "material": 2,
          "mode": 4
        }
      ]
    },
    {
      "name": "Object_3",
      "primitives": [
        {
          "attributes": {
            "NORMAL": 13,
            "POSITION": 12,
            "TEXCOORD_0": 14
          },
          "indices": 15,
          "material": 3,
          "mode": 4
        }
      ]
    }
  ],
  "nodes": [
    {
      "children": [
        1
      ],
      "matrix": [
        1.0,
        0.0,
        0.0,
        0.0,
        0.0,
        2.220446049250313e-16,
        -1.0,
        0.0,
        0.0,
        1.0,
        2.220446049250313e-16,
        0.0,
        0.0,
        0.0,
        0.0,
        1.0
      ],
      "name": "Sketchfab_model"
    },
    {
      "children": [
        2,
        3,
        4,
        5
      ],
      "name": "7a6b32fd9ae94117ac9a00f71e959487.obj.cleaner.materialmerger.gles"
    },
    {
      "mesh": 0,
      "name": "Object_2"
    },
    {
      "mesh": 1,
      "name": "Object_3"
    },
    {
      "mesh": 2,
      "name": "Object_4"
    },
    {
      "mesh": 3,
      "name": "Object_5"
    }
  ],
  "scene": 0,
  "scenes": [
    {
      "name": "Sketchfab_Scene",
      "nodes": [
        0
      ]
    }
  ]
}
