{
  "accessors": [
    {
      "bufferView": 2,
      "componentType": 5126,
      "count": 4509,
      "max": [
        0.690900981426239,
        1.449633002281189,
        0.5787649750709534
      ],
      "min": [
        -1.422139048576355,
        -1.1487900018692017,
        -0.577904999256134
      ],
      "type": "VEC3"
    },
    {
      "bufferView": 2,
      "byteOffset": 54108,
      "componentType": 5126,
      "count": 4509,
      "max": [
        0.9998396635055542,
        0.9999906420707703,
        0.9998980164527893
      ],
      "min": [
        -0.9999797344207764,
        -0.9999840259552002,
        -0.999633252620697
      ],
      "type": "VEC3"
    },
    {
      "bufferView": 3,
      "componentType": 5126,
      "count": 4509,
      "max": [
        0.9997463822364807,
        0.999976396560669,
        0.9998553395271301,
        1.0
      ],
      "min": [
        -0.9975383877754211,
        -0.999994695186615,
        -0.9999685883522034,
        -1.0
      ],
      "type": "VEC4"
    },
    {
      "bufferView": 1,
      "componentType": 5126,
      "count": 4509,
      "max": [
        0.9951670169830322,
        0.9941570162773132
      ],
      "min": [
        0.007348999846726656,
        0.0019729998894035816
      ],
      "type": "VEC2"
    },
    {
      "bufferView": 0,
      "componentType": 5125,
      "count": 22239,
      "type": "SCALAR"
    }
  ],
  "asset": {
    "extras": {
      "author": "Safiya (https://sketchfab.com/thepersonS)",
      "license": "CC-BY-4.0 (http://creativecommons.org/licenses/by/4.0/)",
      "source": "https://sketchfab.com/3d-models/medicine-organ-the-human-kidney-54bd93f545064617bbef79013efd2192",
      "title": "Medicine: Organ - The human kidney"
    },
    "generator": "Sketchfab-15.17.0",
    "version": "2.0"
  },
  "bufferViews": [
    {
      "buffer": 0,
      "byteLength": 88956,
      "name": "floatBufferViews",
      "target": 34963
    },
    {
      "buffer": 0,
      "byteLength": 36072,
      "byteOffset": 88956,
      "byteStride": 8,
      "name": "floatBufferViews",
      "target": 34962
    },
    {
      "buffer": 0,
      "byteLength": 108216,
      "byteOffset": 125028,
      "byteStride": 12,
      "name": "floatBufferViews",
      "target": 34962
    },
    {
      "buffer": 0,
      "byteLength": 72144,
      "byteOffset": 233244,
      "byteStride": 16,
      "name": "floatBufferViews",
      "target": 34962
    }
  ],
  "buffers": [
    {
      "byteLength": 305388,
      "uri": "scene.bin"
    }
  ],
  "extensionsUsed": [
    "KHR_materials_specular"
  ],
  "images": [
    {
      "uri": "textures/M_Kidney_baseColor.jpeg"
    },
    {
      "uri": "textures/M_Kidney_metallicRoughness.png"
    },
    {
      "uri": "textures/M_Kidney_normal.png"
    }
  ],
  "materials": [
    {
      "doubleSided": true,
      "extensions": {
        "KHR_materials_specular": {
          "specularColorFactor": [
            1.0,
            1.0,
            1.0
          ],
          "specularFactor": 0.13841314651107609
        }
      },
      "name": "M_Kidney",
      "normalTexture": {
        "index": 2
      },
      "pbrMetallicRoughness": {
        "baseColorTexture": {
          "index": 0
        },
        "metallicFactor": 0.0,
        "metallicRoughnessTexture": {
          "index": 1
        }
      }
    }
  ],
  "meshes": [
    {
      "name": "Kidney_OBJ:textureEditorIsolateSelectSetKidneyAll_L2_M_Kidney_0",
      "primitives": [
        {
          "attributes": {
            "NORMAL": 1,
            "POSITION": 0,
            "TANGENT": 2,
            "TEXCOORD_0": 3
          },
          "indices": 4,
          "material": 0,
          "mode": 4
        }
      ]
    }
  ],
  "nodes": [
    {
      "children": [
        1
      ],
      "matrix": [
        1.0,
        0.0,
        0.0,
        0.0,
        0.0,
        2.220446049250313e-16,
        -1.0,
        0.0,
        0.0,
        1.0,
        2.220446049250313e-16,
        0.0,
        0.0,
        0.0,
        0.0,
        1.0
      ],
      "name": "Sketchfab_model"
    },
    {
      "children": [
        2
      ],
      "matrix": [
        0.009999999776482582,
        0.0,
        0.0,
        0.0,
        0.0,
        0.0,
        0.009999999776482582,
        0.0,
        0.0,
        -0.009999999776482582,
        0.0,
        0.0,
        0.0,
        0.0,
        0.0,
        1.0
      ],
      "name": "Kidney_FBX.fbx"
    },
    {
      "children": [
        3
      ],
      "name": "RootNode"
    },
    {
      "children": [
        4
      ],
      "name": "Kidney_OBJ:textureEditorIsolateSelectSetKidneyAll_L2"
    },
    {
      "mesh": 0,
      "name": "Kidney_OBJ:textureEditorIsolateSelectSetKidneyAll_L2_M_Kidney_0"
    }
  ],
  "samplers": [
    {
      "magFilter": 9729,
      "minFilter": 9987,
      "wrapS": 10497,
      "wrapT": 10497
    }
  ],
  "scene": 0,
  "scenes": [
    {
      "name": "Sketchfab_Scene",
      "nodes": [
        0
      ]
    }
  ],
  "textures": [
    {
      "sampler": 0,
      "source": 0
    },
    {
      "sampler": 0,
      "source": 1
    },
    {
      "sampler": 0,
      "source": 2
    }
  ]
}
