{
  "accessors": [
    {
      "bufferView": 2,
      "componentType": 5126,
      "count": 124,
      "max": [
        11.7861909866333,
        14.950532913208008,
        4.701690196990967
      ],
      "min": [
        -11.82574462890625,
        -15.04941463470459,
        -4.701690196990967
      ],
      "type": "VEC3"
    },
    {
      "bufferView": 2,
      "byteOffset": 1488,
      "componentType": 5126,
      "count": 124,
      "max": [
        0.9994336366653442,
        0.9997290372848511,
        0.9981565475463867
      ],
      "min": [
        -0.9999955892562866,
        -0.9999023079872131,
        -0.9981565475463867
      ],
      "type": "VEC3"
    },
    {
      "bufferView": 1,
      "componentType": 5126,
      "count": 124,
      "max": [
        0.9776022434234619,
        0.9537392854690552
      ],
      "min": [
        0.022435665130615234,
        0.027104347944259644
      ],
      "type": "VEC2"
    },
    {
      "bufferView": 0,
      "componentType": 5125,
      "count": 600,
      "type": "SCALAR"
    }
  ],
  "asset": {
    "extras": {
      "author": "NKaap (https://sketchfab.com/nkaap)",
      "license": "CC-BY-4.0 (http://creativecommons.org/licenses/by/4.0/)",
      "source": "https://sketchfab.com/3d-models/bag-of-dorritos-hd-textures-free-download-a72fbb5959984fc9a5864b00bc2d5d9b",
      "title": "Bag of Dorritos || HD Textures || FREE Download!"
    },
    "generator": "Sketchfab-15.30.0",
    "version": "2.0"
  },
  "bufferViews": [
    {
      "buffer": 0,
      "byteLength": 2400,
      "name": "floatBufferViews",
      "target": 34963
    },
    {
      "buffer": 0,
      "byteLength": 992,
      "byteOffset": 2400,
      "byteStride": 8,
      "name": "floatBufferViews",
      "target": 34962
    },
    {
      "buffer": 0,
      "byteLength": 2976,
      "byteOffset": 3392,
      "byteStride": 12,
      "name": "floatBufferViews",
      "target": 34962
    }
  ],
  "buffers": [
    {
      "byteLength": 6368,
      "uri": "scene.bin"
    }
  ],
  "extensionsUsed": [
    "KHR_materials_clearcoat"
  ],
  "images": [
    {
      "uri": "textures/Dorrito_baseColor.png"
    }
  ],
  "materials": [
    {
      "doubleSided": true,
      "extensions": {
        "KHR_materials_clearcoat": {
          "clearcoatFactor": 0.09773415640956182,
          "clearcoatRoughnessFactor": 0.04
        }
      },
      "name": "Dorrito",
      "pbrMetallicRoughness": {
        "baseColorTexture": {
          "index": 0
        },
        "metallicFactor": 0.0,
        "roughnessFactor": 0.9204960546962828
      }
    }
  ],
  "meshes": [
    {
      "name": "Dorrito_Dorrito_0",
      "primitives": [
        {
          "attributes": {
            "NORMAL": 1,
            "POSITION": 0,
            "TEXCOORD_0": 2
          },
          "indices": 3,
          "material": 0,
          "mode": 4
        }
      ]
    }
  ],
  "nodes": [
    {
      "children": [
        1
      ],
      "matrix": [
        1.0,
        0.0,
        0.0,
        0.0,
        0.0,
        2.220446049250313e-16,
        -1.0,
        0.0,
        0.0,
        1.0,
        2.220446049250313e-16,
        0.0,
        0.0,
        0.0,
        0.0,
        1.0
      ],
      "name": "Sketchfab_model"
    },
    {
      "children": [
        2
      ],
      "matrix": [
        0.009999999776482582,
        0.0,
        0.0,
        0.0,
        0.0,
        0.0,
        0.009999999776482582,
        0.0,
        0.0,
        -0.009999999776482582,
        0.0,
        0.0,
        0.0,
        0.0,
        0.0,
        1.0
      ],
      "name": "8535cd6eec1245798298567c61c7a18e.fbx"
    },
    {
      "children": [
        3
      ],
      "name": "RootNode"
    },
    {
      "children": [
        4
      ],
      "name": "Dorrito"
    },
    {
      "mesh": 0,
      "name": "Dorrito_Dorrito_0"
    }
  ],
  "samplers": [
    {
      "magFilter": 9729,
      "minFilter": 9987,
      "wrapS": 10497,
      "wrapT": 10497
    }
  ],
  "scene": 0,
  "scenes": [
    {
      "name": "Sketchfab_Scene",
      "nodes": [
        0
      ]
    }
  ],
  "textures": [
    {
      "sampler": 0,
      "source": 0
    }
  ]
}
