{
  "accessors": [
    {
      "bufferView": 2,
      "componentType": 5126,
      "count": 7605,
      "max": [
        0.45534631609916687,
        1.9069974422454834,
        0.2585664987564087
      ],
      "min": [
        -0.45478788018226624,
        0.001024420838803053,
        -0.2569316625595093
      ],
      "type": "VEC3"
    },
    {
      "bufferView": 2,
      "byteOffset": 91260,
      "componentType": 5126,
      "count": 7605,
      "max": [
        0.9999729990959167,
        0.9928218722343445,
        0.9999285936355591
      ],
      "min": [
        -0.9999964833259583,
        -0.9997826218605042,
        -0.9998908638954163
      ],
      "type": "VEC3"
    },
    {
      "bufferView": 3,
      "componentType": 5126,
      "count": 7605,
      "max": [
        0.9999293088912964,
        0.9999974966049194,
        0.9999144673347473,
        1.0
      ],
      "min": [
        -0.9998047351837158,
        -0.9999983310699463,
        -0.9999929070472717,
        -1.0
      ],
      "type": "VEC4"
    },
    {
      "bufferView": 1,
      "componentType": 5126,
      "count": 7605,
      "max": [
        0.9972898960113525,
        0.9908888936042786
      ],
      "min": [
        0.0009746582945808768,
        0.0009746584109961987
      ],
      "type": "VEC2"
    },
    {
      "bufferView": 1,
      "byteOffset": 60840,
      "componentType": 5126,
      "count": 7605,
      "max": [
        0.9972898960113525,
        0.9908888936042786
      ],
      "min": [
        0.0009746582945808768,
        0.0009746584109961987
      ],
      "type": "VEC2"
    },
    {
      "bufferView": 0,
      "componentType": 5125,
      "count": 30078,
      "type": "SCALAR"
    }
  ],
  "asset": {
    "extras": {
      "author": "David Wigforss (https://sketchfab.com/dwigfor)",
      "license": "CC-BY-NC-4.0 (http://creativecommons.org/licenses/by-nc/4.0/)",
      "source": "https://sketchfab.com/3d-models/samuel-jackson-nick-fury-avengers-ee71636a0d7549858110e1b847feb438",
      "title": "Samuel Jackson (Nick Fury) (Avengers)"
    },
    "generator": "Sketchfab-12.66.0",
    "version": "2.0"
  },
  "bufferViews": [
    {
      "buffer": 0,
      "byteLength": 120312,
      "name": "floatBufferViews",
      "target": 34963
    },
    {
      "buffer": 0,
      "byteLength": 121680,
      "byteOffset": 120312,
      "byteStride": 8,
      "name": "floatBufferViews",
      "target": 34962
    },
    {
      "buffer": 0,
      "byteLength": 182520,
      "byteOffset": 241992,
      "byteStride": 12,
      "name": "floatBufferViews",
      "target": 34962
    },
    {
      "buffer": 0,
      "byteLength": 121680,
      "byteOffset": 424512,
      "byteStride": 16,
      "name": "floatBufferViews",
      "target": 34962
    }
  ],
  "buffers": [
    {
      "byteLength": 546192,
      "uri": "scene.bin"
    }
  ],
  "images": [
    {
      "uri": "textures/MAT_Seuss_Cat3_baseColor.jpeg"
    },
    {
      "uri": "textures/MAT_Seuss_Cat3_normal.png"
    }
  ],
  "materials": [
    {
      "doubleSided": true,
      "name": "MAT_Seuss_Cat3",
      "normalTexture": {
        "index": 1
      },
      "pbrMetallicRoughness": {
        "baseColorTexture": {
          "index": 0
        },
        "metallicFactor": 0.0,
        "roughnessFactor": 0.9577051494623774
      }
    }
  ],
  "meshes": [
    {
      "name": "geo1_MAT_Seuss_Cat3_0",
      "primitives": [
        {
          "attributes": {
            "NORMAL": 1,
            "POSITION": 0,
            "TANGENT": 2,
            "TEXCOORD_0": 3,
            "TEXCOORD_1": 4
          },
          "indices": 5,
          "material": 0,
          "mode": 4
        }
      ]
    }
  ],
  "nodes": [
    {
      "children": [
        1
      ],
      "matrix": [
        1.0,
        0.0,
        0.0,
        0.0,
        0.0,
        2.220446049250313e-16,
        -1.0,
        0.0,
        0.0,
        1.0,
        2.220446049250313e-16,
        0.0,
        0.0,
        0.0,
        0.0,
        1.0
      ],
      "name": "Sketchfab_model"
    },
    {
      "children": [
        2
      ],
      "matrix": [
        1.0,
        0.0,
        0.0,
        0.0,
        0.0,
        0.0,
        1.0,
        0.0,
        0.0,
        -1.0,
        0.0,
        0.0,
        0.0,
        0.0,
        0.0,
        1.0
      ],
      "name": "mesh.fbx"
    },
    {
      "children": [
        3
      ],
      "name": "RootNode"
    },
    {
      "children": [
        4
      ],
      "name": "geo1"
    },
    {
      "mesh": 0,
      "name": "geo1_MAT_Seuss_Cat3_0"
    }
  ],
  "samplers": [
    {
      "magFilter": 9729,
      "minFilter": 9987,
      "wrapS": 10497,
      "wrapT": 10497
    }
  ],
  "scene": 0,
  "scenes": [
    {
      "name": "Sketchfab_Scene",
      "nodes": [
        0
      ]
    }
  ],
  "textures": [
    {
      "sampler": 0,
      "source": 0
    },
    {
      "sampler": 0,
      "source": 1
    }
  ]
}
